<?xml version="1.0" encoding="utf-8"?>
<!-- Svg Vector Icons : http://www.onlinewebfonts.com/icon -->
<!DOCTYPE svg PUBLIC "-//W3C//DTD SVG 1.1//EN" "http://www.w3.org/Graphics/SVG/1.1/DTD/svg11.dtd">
<svg version="1.1" xmlns="http://www.w3.org/2000/svg" xmlns:xlink="http://www.w3.org/1999/xlink" x="0px" y="0px" viewBox="0 0 1000 1000" enable-background="new 0 0 1000 1000" xml:space="preserve">
<metadata> Svg Vector Icons : http://www.onlinewebfonts.com/icon </metadata>
<g><g transform="translate(0.000000,512.000000) scale(0.100000,-0.100000)"><path d="M4689.5,5014.1c-859.9-103.4-1537.9-429-2108.6-1015c-482.6-496-785.2-1087.8-909.7-1779.2c-47.9-268.1-47.9-861.8,0-1129.9c124.5-693.3,430.9-1287,919.3-1786.8c909.7-932.7,2246.5-1254.4,3483.7-838.8c986.3,329.4,1783,1126.1,2112.4,2112.4c237.5,706.7,237.5,1449.8,0,2156.5C7935.7,3483.9,7409,4135,6710,4556.4c-314.1,189.6-758.4,354.3-1139.5,421.3C5396.2,5008.3,4833.1,5031.3,4689.5,5014.1z M5302.4,3188.9l28.7-293l124.5-47.9c199.2-74.7,185.8-76.6,350.5,59.4c80.4,67,182,149.4,220.3,181.9l72.8,57.5l195.4-195.3l193.4-195.4l-178.1-220.2l-180-218.3l46-88.1c24.9-47.9,57.5-120.7,70.9-162.8l26.8-76.6l256.6-24.9c141.7-15.3,268.1-28.7,281.5-34.5c19.1-5.7,23-70.9,19.1-279.6l-5.7-273.9l-258.6-24.9c-141.7-13.4-268.1-26.8-279.6-30.6c-9.6-3.8-30.6-42.1-42.1-82.4c-11.5-42.1-44-114.9-69-160.9l-44-86.2l178.1-218.3l180-220.2l-195.4-195.4L6101,163l-136,111.1c-74.7,61.3-178.1,147.5-229.8,189.6c-93.8,76.6-95.7,78.5-153.2,47.9c-32.6-17.2-101.5-44-155.1-61.3l-95.7-30.6l-28.7-296.8L5273.6-174h-277.7h-277.7l-28.7,294.9l-28.7,293l-124.5,47.9c-201.1,76.6-180,82.4-421.3-116.8L3894.7,163l-195.4,193.4L3504,551.8l57.5,72.8c32.5,38.3,113,137.9,181.9,220.2c118.7,143.6,120.7,149.4,91.9,193.4c-17.2,24.9-49.8,97.7-74.7,162.8l-44,118.8l-273.9,28.7l-275.8,28.7l-5.7,273.9c-3.8,208.8,0,273.9,19.2,279.6c13.4,5.8,139.8,19.2,281.5,34.5l254.7,24.9l44,118.7c24.9,65.1,57.5,137.9,74.7,162.8c26.8,42.1,21.1,51.7-153.2,264.3l-180,220.2l195.4,195.4l193.4,195.3l136-111.1c74.7-61.3,178.1-147.5,229.8-189.6c93.8-76.6,95.8-78.5,153.2-47.9c32.6,17.2,101.5,44,155.1,61.3l95.8,30.6l30.6,296.9c17.2,162.8,32.6,298.8,34.5,302.6c0,1.9,124.5,1.9,275.8,0l272-5.7L5302.4,3188.9z"/><path d="M4735.5,2444c-224.1-78.5-385-224.1-492.2-444.3c-57.5-116.8-61.3-134.1-61.3-344.7c0-212.6,1.9-226,65.1-354.3c84.3-172.4,222.2-310.3,394.5-394.5c128.3-63.2,141.7-65.1,354.3-65.1c212.6,0,226,1.9,354.3,65.1c172.4,84.3,310.3,222.2,394.5,394.5c63.2,128.3,65.1,141.7,65.1,354.3c0,212.6-1.9,226-65.1,354.3c-82.3,168.5-226,310.3-398.3,394.5c-114.9,57.5-147.5,65.1-319.8,70.9C4877.2,2478.4,4810.2,2470.8,4735.5,2444z M5145.3,2026.4c149.4-61.3,252.8-212.6,252.8-371.5c0-216.4-185.8-402.2-402.2-402.2c-279.6,0-478.8,296.8-371.5,551.6C4708.7,2009.2,4946.1,2110.7,5145.3,2026.4z"/><path d="M6369.1-2650.3l-434.7-434.8l109.2-111.1l111.1-109.2l252.8,252.8l254.7,254.7v-972.9v-971h153.2h153.2v971v972.9l254.7-254.7l252.8-252.8l111.1,111.1l109.2,109.2l-436.7,436.7c-239.4,239.4-438.6,434.7-444.3,434.7S6608.5-2409,6369.1-2650.3z"/><path d="M3023.3-3223v-972.9l-254.7,254.7l-252.8,252.8l-111.1-111.1l-109.2-109.2l436.7-436.6L3167-4780l440.5,440.5l440.5,440.5l-105.3,105.3l-105.3,105.3l-252.8-252.8l-254.7-254.7v972.9v971h-153.2h-153.2V-3223z"/></g></g>
</svg>